<svg version="1.1" id="Layer_1" xmlns="http://www.w3.org/2000/svg" xmlns:xlink="http://www.w3.org/1999/xlink" x="0px" y="0px"
	 width="100%" viewBox="0 0 784 800" enable-background="new 0 0 784 800" xml:space="preserve">
<path fill="#000000" opacity="1.000000" stroke="none" 
	d="
M192.583344,1.000000 
	C200.276611,3.908180 208.275528,3.556799 215.652359,6.621844 
	C226.455078,11.110321 233.802368,22.062254 232.269928,33.645004 
	C231.925079,36.251373 232.516602,38.236179 234.991302,39.457497 
	C245.308105,44.549068 253.258575,52.657021 261.607880,60.276031 
	C278.916931,76.071045 288.140686,96.710945 296.779999,117.841782 
	C305.905457,140.161774 308.543549,163.466019 307.932251,187.211761 
	C307.454712,205.761780 309.063385,224.118607 311.564667,242.406342 
	C312.578888,249.821762 316.407593,256.524017 319.741394,263.221771 
	C321.958435,267.675842 324.516357,271.958862 326.828247,276.367401 
	C330.163635,282.727753 335.685760,286.878021 340.994507,291.380585 
	C343.553253,288.794281 342.038879,286.358398 341.968384,283.973999 
	C341.831146,279.332214 341.588318,274.543884 346.165100,271.400879 
	C350.408691,268.486725 354.775848,267.885254 359.228302,270.775238 
	C362.927979,273.176605 364.939209,276.662231 365.334106,281.093231 
	C365.666718,284.825256 366.100586,288.548279 366.668549,293.989166 
	C383.707886,280.611603 390.340485,261.176453 402.775208,247.247925 
	C402.820618,245.206406 401.914673,244.996399 401.233093,244.575211 
	C400.543335,244.148926 399.860596,243.711227 399.269104,243.338028 
	C398.933350,240.955795 400.323578,239.100906 401.762207,238.631683 
	C406.261871,237.164108 405.838928,233.952332 405.764282,230.371521 
	C405.539276,219.581085 413.291016,214.765350 421.358093,210.391266 
	C424.566986,208.651337 427.654938,206.873367 430.461121,203.720291 
	C425.400299,200.496323 419.884003,199.071411 415.020416,196.284210 
	C403.457245,189.657623 394.752197,170.164978 408.212158,156.149918 
	C419.266693,144.639450 432.467529,142.043472 447.450104,144.898422 
	C454.223541,146.189087 460.402771,149.012207 466.546906,151.991211 
	C474.418793,155.807983 481.949036,157.007202 490.794708,153.309555 
	C500.402679,149.293274 510.933319,150.685944 521.306519,152.151932 
	C531.770325,153.630722 539.712463,159.421646 547.694275,165.266983 
	C555.754822,171.169937 562.853943,178.178589 569.370178,185.820999 
	C578.996155,197.110565 580.899719,211.214828 574.470154,223.626862 
	C579.296692,228.921906 583.838623,234.158813 588.652283,239.132767 
	C598.728943,249.545120 605.819397,261.905304 612.567566,274.567657 
	C619.622437,287.805573 625.651367,301.413879 629.979004,315.808380 
	C632.329834,323.627533 634.460938,331.467133 635.569580,339.546387 
	C636.405701,345.640045 636.900940,346.153778 643.094238,346.003998 
	C647.083923,345.907532 651.078552,346.036316 655.070190,345.993103 
	C658.144043,345.959808 659.326416,344.802734 657.965454,341.581238 
	C649.382446,321.264374 646.190979,299.820312 644.728638,278.000336 
	C644.184021,269.872925 643.057373,261.777222 644.809265,253.664581 
	C648.351318,237.262177 652.783997,221.265213 665.867737,209.439072 
	C670.966675,204.830170 676.543335,200.822525 683.508850,199.615936 
	C689.619751,198.557419 694.552368,194.873566 699.659485,192.024887 
	C710.748718,185.839447 721.462891,188.245926 732.529602,191.127670 
	C746.295166,194.712189 751.674622,206.068344 757.234924,217.297836 
	C764.129089,231.221024 768.316956,246.076035 772.824402,260.884888 
	C776.609131,273.319244 779.805115,285.841858 782.446960,298.529236 
	C783.459595,303.392212 783.960388,308.361755 784.847168,313.641357 
	C785.000000,332.354218 785.000000,350.708466 784.735718,369.245026 
	C783.543091,365.211426 782.505432,361.016144 781.704651,356.776093 
	C777.384521,333.902222 773.107788,311.020050 768.856812,288.133148 
	C768.148804,284.321564 766.401489,281.644897 762.878296,279.530914 
	C750.676514,272.209625 737.557190,267.865112 723.487610,266.217834 
	C721.662842,266.004150 719.820923,265.962158 718.225708,264.886688 
	C716.949768,264.026489 715.717163,263.076691 715.968567,261.320374 
	C716.207031,259.654572 717.447998,258.680969 718.921448,258.240387 
	C720.170471,257.866913 721.534363,257.840637 722.853455,257.744110 
	C734.814148,256.868835 745.328308,261.567841 755.848999,266.284698 
	C757.873230,267.192230 759.788513,268.855591 762.805908,267.684143 
	C761.316956,258.824097 759.031189,250.223709 755.442688,242.015457 
	C754.232727,239.247604 754.016479,235.412354 750.286743,234.524658 
	C737.777100,231.547241 725.238098,228.816803 712.596375,234.102783 
	C710.941223,234.794876 709.066345,235.114990 707.264954,235.263000 
	C705.255432,235.428101 703.051575,235.238937 702.149292,233.032181 
	C701.181213,230.664459 702.988464,229.296387 704.635986,228.155975 
	C705.988342,227.219849 707.488647,226.444931 709.014038,225.819687 
	C719.925964,221.346924 731.100098,221.784760 742.364746,224.150070 
	C743.943420,224.481552 745.561462,225.264191 747.406006,223.553802 
	C745.645630,218.215530 744.367981,212.227432 740.315857,208.085144 
	C726.924683,194.396042 708.309143,196.076752 696.361389,209.380875 
	C693.379700,212.700989 690.752930,216.390686 688.315613,220.139709 
	C678.859497,234.684402 673.882874,250.696381 673.199768,268.022827 
	C672.642029,282.171326 673.181274,296.218079 676.820862,310.029663 
	C679.030090,318.413300 681.937500,326.535095 685.487122,334.410583 
	C689.500183,343.314453 693.690674,352.146027 698.107971,360.854858 
	C699.266968,363.139771 701.307800,365.166901 699.181213,367.518219 
	C697.152405,369.761444 694.497986,368.690613 692.271545,367.462769 
	C688.465210,365.363678 684.466553,363.763428 680.373657,362.356842 
	C666.371887,357.545074 652.025818,355.418488 637.187622,356.172852 
	C630.218567,356.527161 626.678894,353.705811 625.210266,347.309326 
	C621.676636,331.918335 617.852112,316.667053 611.590942,302.060364 
	C603.364258,282.868164 594.623291,264.071228 580.112915,248.606491 
	C571.078369,238.977707 561.289856,230.268250 550.103882,223.178802 
	C546.791748,221.079666 544.103271,221.012222 542.664124,225.147217 
	C541.843506,227.504959 540.627747,228.242004 538.169373,227.700546 
	C535.605164,227.135773 532.838501,227.591553 530.451904,226.057404 
	C529.044373,225.152664 527.649414,225.379761 526.236816,226.253708 
	C518.981812,230.742142 510.450562,229.345398 502.582733,230.914368 
	C497.332855,231.961273 491.701202,232.604416 486.740540,234.224945 
	C477.483002,237.249130 468.783447,241.933746 458.706757,237.727936 
	C458.081940,237.467148 457.038422,237.807236 456.346954,238.168610 
	C445.672302,243.747253 433.899170,244.084869 422.321167,245.275543 
	C420.237305,245.489868 418.459686,245.830109 416.963928,247.420700 
	C408.154144,256.788879 401.124268,267.467712 393.832184,277.998718 
	C386.758087,288.214813 379.797516,298.799835 367.682251,304.068207 
	C364.987305,305.240143 364.333069,307.478333 364.272461,310.173920 
	C364.015533,321.598846 363.538727,333.020782 363.423431,344.446625 
	C363.216675,364.941132 363.397949,385.441040 363.023865,405.931549 
	C362.890503,413.235748 362.086395,420.539001 362.366638,427.863770 
	C362.471039,430.591461 362.777130,433.258423 366.474579,433.582581 
	C388.806183,435.540405 411.060486,438.071503 433.571625,435.035431 
	C453.481903,432.350128 473.683167,431.508087 492.508270,423.387665 
	C494.640350,422.467987 497.118317,421.985352 499.078125,423.912994 
	C500.886505,425.691772 500.398895,427.876831 499.658905,429.994080 
	C498.167755,434.260376 499.990417,437.436401 503.043610,440.175781 
	C506.484558,443.263092 510.258057,445.262085 515.426697,443.976074 
	C514.256775,437.257843 516.361572,431.806946 520.213806,426.930023 
	C522.423279,424.132721 525.297791,422.737427 528.417603,425.111176 
	C531.385315,427.369202 529.532959,429.697662 527.821594,431.964752 
	C526.534912,433.669159 525.467285,435.604431 524.652710,437.581329 
	C523.833435,439.569672 524.107971,441.593475 526.164246,442.847748 
	C531.353210,446.012939 536.744873,448.422668 543.094604,447.657288 
	C546.607788,447.233826 548.146790,445.997437 546.991943,442.112610 
	C545.157471,435.941681 545.048401,429.640472 546.890747,423.388397 
	C548.145020,419.132080 551.685425,415.875641 553.953369,417.225525 
	C557.748047,419.484192 555.495422,422.453888 554.759216,425.528503 
	C552.219604,436.134460 554.324341,446.028442 569.160461,444.870453 
	C576.947998,444.262634 587.710815,433.845673 589.741638,425.181122 
	C592.011963,415.494293 592.732178,405.626221 591.204102,395.954712 
	C590.053284,388.670837 586.962769,381.609955 580.209473,377.170776 
	C556.956665,361.885681 531.255188,359.440491 504.473877,362.818787 
	C498.871704,363.525452 493.285034,364.400238 487.725098,365.388092 
	C472.673645,368.062378 457.566040,370.491730 442.624939,373.691833 
	C431.860138,375.997467 421.125092,377.979950 410.106598,378.034485 
	C408.148071,378.044189 406.125610,377.619568 404.241150,377.041748 
	C401.707520,376.264832 398.602783,375.383606 399.217499,371.919464 
	C399.775757,368.773438 402.818207,368.933258 405.311279,368.904663 
	C412.964630,368.816772 420.623657,369.054871 428.212860,367.641052 
	C455.824158,362.497345 483.187653,356.160828 511.067383,352.272247 
	C535.874451,348.812164 558.578308,353.567902 580.406555,365.045563 
	C595.468201,372.965302 602.914490,384.888153 602.290222,402.155243 
	C601.784302,416.146210 602.168152,415.873047 616.487061,414.719025 
	C644.812256,412.436157 672.941833,414.134277 700.792053,419.912628 
	C714.797180,422.818420 728.640686,426.465027 742.802002,428.665985 
	C756.934021,430.862427 771.046021,435.636993 785.000000,428.000000 
	C785.000000,431.692902 785.000000,435.385834 785.000000,439.539368 
	C774.584595,445.149780 763.933899,444.146332 752.820679,442.382263 
	C737.535706,439.956085 722.267212,437.397095 707.205139,433.996368 
	C690.471863,430.218323 673.545410,427.987579 656.615906,425.608307 
	C654.152222,425.262085 651.639587,425.221832 649.146240,425.136505 
	C640.175781,424.829529 631.177551,425.783203 622.227356,424.327332 
	C615.789429,423.280151 609.388306,425.659851 602.857422,424.633026 
	C600.060364,424.193268 599.185913,426.871246 598.017334,429.330872 
	C593.114746,439.649719 586.846130,448.956665 576.029602,454.107391 
	C571.786560,456.127869 567.311157,456.508209 562.871338,455.173462 
	C559.162720,454.058563 555.790222,454.524780 552.145630,455.560120 
	C543.823303,457.924225 535.356750,458.202881 527.144714,455.082947 
	C523.819763,453.819763 520.548767,454.132477 517.290466,454.375610 
	C504.475830,455.331879 496.078461,449.067993 490.576782,438.205597 
	C489.195648,435.478668 487.891846,434.972076 485.159546,436.163971 
	C467.315796,443.947632 448.151642,445.370087 429.155243,447.491119 
	C419.244354,448.597748 409.300598,449.501526 399.301025,449.062653 
	C388.680023,448.596466 378.090942,447.756866 367.656555,445.624146 
	C363.895264,444.855286 361.846191,446.242981 361.342957,449.938171 
	C361.141968,451.414001 361.264191,452.932312 361.212219,454.430328 
	C361.031952,459.626617 358.793365,462.045532 353.580902,462.262543 
	C349.423126,462.435669 345.242462,462.474182 341.089508,462.248871 
	C335.205292,461.929626 333.325653,459.023010 334.995789,453.317841 
	C336.668579,447.603668 335.433868,445.915527 329.496674,446.090424 
	C314.535950,446.531036 299.287872,445.414734 284.706635,448.015381 
	C272.473755,450.197144 259.860870,451.274445 247.911987,455.872711 
	C231.660370,462.126770 215.270203,468.227631 198.223038,472.126068 
	C194.005188,473.090668 193.065659,474.952454 193.829819,479.190125 
	C197.986008,502.238983 202.744186,525.177551 206.306213,548.338074 
	C208.124832,560.162781 211.186127,571.810364 212.706940,583.663574 
	C215.014389,601.648010 218.498657,619.437927 221.532593,637.276184 
	C225.242126,659.086792 228.658279,680.926392 230.881546,702.898743 
	C233.180313,725.617126 233.151855,748.471069 227.691681,770.849365 
	C225.618759,779.345093 222.617172,787.677185 215.728104,794.045776 
	C212.126633,797.375244 208.022522,799.133118 203.309052,800.828064 
	C200.629440,801.000000 198.258896,801.000000 195.122314,800.811646 
	C179.702850,798.256165 170.369614,788.481018 165.524567,775.868286 
	C160.801819,763.573853 156.717270,750.872192 153.138458,738.069214 
	C146.533569,714.440613 142.128723,690.495361 140.964600,666.010193 
	C140.065842,647.106384 139.306549,628.187622 139.866837,609.245667 
	C140.418198,590.606140 142.392273,572.076294 146.136917,553.866272 
	C150.211472,534.052002 154.243942,514.181274 160.432404,494.850372 
	C161.980713,490.013947 162.991486,485.005493 164.206436,480.244110 
	C161.636765,478.445435 159.226288,478.947876 156.960785,479.025482 
	C141.786819,479.545380 126.568245,478.855347 111.750168,476.084747 
	C90.235809,472.062073 68.952988,466.902954 49.153885,456.742096 
	C37.305744,450.661621 26.952869,442.763977 16.908096,434.286499 
	C14.512333,432.264557 12.598501,429.736969 10.675484,427.191406 
	C5.848145,420.801300 3.869146,413.220032 1.000000,406.000000 
	C1.000000,399.978851 1.000000,393.957703 1.210571,387.169556 
	C5.553581,369.233551 14.418665,354.535583 25.615618,341.206116 
	C32.039223,333.559113 38.264282,325.912964 43.302135,317.192688 
	C50.205185,305.243927 53.292030,292.431976 52.367561,278.980194 
	C51.008934,259.211060 45.768684,240.037262 41.250061,220.825287 
	C34.727818,193.094498 34.555187,165.786133 45.189404,139.072433 
	C59.241711,103.772324 82.631165,76.580528 116.673195,59.087555 
	C126.416420,54.080860 136.367645,49.473591 146.286133,44.816544 
	C149.370239,43.368454 150.013824,41.471832 150.368576,37.946888 
	C151.645752,25.255968 156.593536,14.405015 168.188004,7.361724 
	C174.381744,3.599220 181.423767,3.181540 188.000000,1.000000 
	C189.388885,1.000000 190.777786,1.000000 192.583344,1.000000 
M90.569626,94.077583 
	C78.147247,108.269089 66.690918,123.188271 60.006382,141.007172 
	C54.570591,155.497299 50.658096,170.428513 50.996750,186.181549 
	C51.385880,204.282669 55.014065,221.927383 59.932777,239.128372 
	C65.948021,260.164001 68.538925,280.661133 62.539692,302.296295 
	C58.907383,315.395569 51.514507,325.692810 43.387466,335.656006 
	C33.333645,347.981262 24.246128,360.708527 18.452856,375.634796 
	C13.505351,388.381897 11.994390,401.386505 17.634937,414.029541 
	C26.359354,433.584839 43.251183,444.407013 62.453369,451.131042 
	C77.756767,456.489899 93.812981,459.534271 109.966690,462.002258 
	C127.144287,464.626648 144.298706,465.764343 161.623947,465.422943 
	C165.773148,465.341187 167.738419,463.283508 168.344345,459.541901 
	C168.635147,457.746277 168.534058,455.890564 168.690506,454.068939 
	C168.897705,451.656525 169.965012,449.659058 172.614716,449.799469 
	C177.310196,450.048218 181.925140,450.779663 184.988098,455.066071 
	C190.245346,462.423431 190.244431,462.354523 198.950226,459.696259 
	C213.102264,455.374878 226.843765,449.941071 240.728561,444.868286 
	C269.439423,434.378876 299.451508,430.497345 329.958740,430.957581 
	C335.009277,431.033783 336.540619,429.014313 336.729126,424.769745 
	C337.886078,398.713898 338.859161,372.651123 340.685211,346.626373 
	C341.441925,335.841370 341.004486,324.946625 342.240509,314.232178 
	C342.857697,308.882050 341.329010,306.185303 337.106903,303.766571 
	C318.540802,293.130585 306.754974,277.383606 301.662628,256.555023 
	C297.610413,239.980789 296.603241,223.083099 295.876312,206.142853 
	C295.391388,194.841827 295.969177,183.525253 294.843109,172.219925 
	C293.587006,159.608948 291.766876,147.065109 288.084229,135.002167 
	C283.773010,120.880333 278.473694,107.159554 270.830292,94.239723 
	C265.032379,84.439392 259.339905,74.890610 251.298462,66.712219 
	C241.628632,56.877724 231.034653,48.949322 217.108749,46.420387 
	C196.529022,42.683128 176.484619,46.027485 157.251678,52.803135 
	C132.402130,61.557487 110.173653,75.181160 90.569626,94.077583 
M567.853455,208.521118 
	C567.227295,201.671692 566.148071,195.048019 561.630127,189.377991 
	C555.442505,181.612488 548.069641,175.094009 540.017395,169.508926 
	C526.202026,159.926544 511.092499,158.704285 495.320068,164.223923 
	C490.722168,165.832993 486.142395,166.403275 481.133942,165.608612 
	C473.527283,164.401718 467.040253,160.672546 460.202789,157.706970 
	C448.157623,152.482651 436.133942,151.654373 423.949463,157.236984 
	C415.682129,161.024872 411.575439,166.898392 412.162720,174.460983 
	C412.848663,183.294647 418.830444,190.995758 426.463104,193.456177 
	C429.869385,194.554184 431.917755,194.188141 432.596497,190.348511 
	C432.826447,189.047821 433.519989,187.822296 433.700348,186.520645 
	C435.359772,174.545502 445.216614,171.760849 454.302277,168.224274 
	C456.274353,167.456635 458.394012,168.108521 459.218445,170.426361 
	C460.020813,172.681976 458.324799,173.759689 456.728302,174.727158 
	C453.742188,176.536789 450.798309,178.436768 447.703217,180.041290 
	C442.843903,182.560364 441.716034,187.266434 441.624207,191.811172 
	C441.539642,195.997559 443.587219,200.065796 447.811218,201.951447 
	C453.578278,204.525970 459.453552,206.630325 465.987640,206.840057 
	C470.663971,206.990158 471.947540,205.626221 471.794891,200.952072 
	C471.518951,192.503983 477.436584,184.358856 484.909454,181.422714 
	C487.805054,180.284988 490.279938,180.788315 492.024628,183.183929 
	C494.016296,185.918655 491.649719,187.324997 489.808258,188.794724 
	C488.647034,189.721573 487.692566,190.961533 486.434692,191.704300 
	C479.557648,195.765137 477.826691,202.881119 482.585297,209.071335 
	C491.794159,221.050568 509.846375,223.382874 523.166138,218.721939 
	C524.462036,218.268478 525.136414,217.081940 525.705383,215.797958 
	C530.011414,206.081467 537.773804,203.377014 547.392090,207.930557 
	C553.526306,210.834641 559.029968,214.846329 564.891663,218.091858 
	C567.450378,215.373505 567.629395,212.370178 567.853455,208.521118 
M659.302612,309.165070 
	C663.052734,321.019684 664.357422,333.563232 669.654663,345.000244 
	C671.982117,350.025482 676.283936,352.792877 683.452942,351.938202 
	C660.907959,308.673248 652.356995,264.479309 674.586853,217.425644 
	C671.077576,221.136856 668.378845,224.028076 666.500366,227.557678 
	C660.721008,238.416946 658.249878,250.305130 655.875000,262.211792 
	C655.620361,263.488281 655.586182,264.849304 655.693054,266.151123 
	C656.846924,280.211090 658.049744,294.267029 659.302612,309.165070 
z"/>
<path fill="#000000" opacity="1.000000" stroke="none" 
	d="
M98.568237,329.505707 
	C94.987740,328.035645 91.814651,326.658081 88.368019,325.861938 
	C85.453835,325.188782 82.819252,323.549774 80.697449,321.380371 
	C79.271141,319.922119 78.227310,318.058136 79.209450,315.948486 
	C80.239708,313.735504 82.504463,313.486694 84.399742,314.001556 
	C96.383095,317.257050 108.771812,319.466248 119.133034,327.082672 
	C122.881760,329.838348 126.736702,332.433899 131.099777,334.220184 
	C132.762573,334.900940 134.449875,335.913177 135.665741,337.206909 
	C137.741486,339.415649 140.761642,341.706329 138.289627,345.294769 
	C135.915146,348.741638 132.473022,349.061615 129.022354,347.118958 
	C125.992752,345.413330 123.148499,343.353973 120.329826,341.303162 
	C113.699463,336.479065 106.595215,332.551819 98.568237,329.505707 
z"/>
</svg>