<svg version="1.1" id="Layer_1" xmlns="http://www.w3.org/2000/svg" xmlns:xlink="http://www.w3.org/1999/xlink" x="0px" y="0px"
	 width="100%" viewBox="0 0 592 704" enable-background="new 0 0 592 704" xml:space="preserve">
<path fill="#000000" opacity="1.000000" stroke="none" 
	d="
M342.430969,365.840790 
	C342.933105,367.836273 343.479889,369.424713 343.723145,371.058380 
	C344.322998,375.087036 345.839050,377.609009 350.574005,378.035126 
	C355.151459,378.447021 357.394867,382.421906 359.265839,386.238647 
	C360.974182,389.723602 362.170197,393.594910 361.939240,397.313141 
	C361.192322,409.337891 368.443481,419.190430 370.325073,430.451111 
	C370.602997,432.114410 371.935394,432.957916 373.278503,433.626923 
	C380.192871,437.070923 382.709259,443.173309 383.270844,450.341309 
	C383.461304,452.771942 383.991791,454.934875 385.570557,456.778198 
	C393.279938,465.779755 394.425873,476.612183 393.761200,487.736481 
	C393.356140,494.516052 392.339691,501.287628 390.560059,507.899994 
	C389.581787,511.534698 391.627319,513.129517 394.831360,513.831238 
	C401.828461,515.363586 407.088043,519.566345 411.727570,524.762207 
	C414.474457,527.838562 416.075531,531.465820 416.915253,535.424133 
	C418.184906,541.408936 415.735077,545.199890 409.917786,547.283325 
	C401.604584,550.260681 392.905701,550.339355 384.295837,550.902161 
	C359.683289,552.510864 335.059998,553.308411 310.572693,549.322815 
	C305.171021,548.443604 299.847290,547.011169 294.545563,545.613953 
	C289.641327,544.321533 288.354004,541.254517 290.137177,536.510437 
	C293.066711,528.716675 299.625153,525.747620 306.871399,523.701294 
	C310.832397,522.582703 314.859222,521.697449 319.346741,520.585388 
	C317.766693,517.987000 315.602539,517.586609 313.645905,516.936096 
	C300.203674,512.466980 290.014343,504.066437 283.593872,491.443054 
	C281.588654,487.500580 279.270233,486.463837 275.276794,488.063110 
	C272.503479,489.173767 269.580231,489.916046 266.711090,490.780182 
	C258.788757,493.166229 250.915924,494.382721 242.685593,491.697144 
	C238.810730,490.432709 234.534286,490.399078 230.422241,489.805206 
	C231.903580,483.186493 239.552917,476.770386 246.112808,476.751953 
	C251.491516,476.736847 256.670532,475.612091 261.908691,474.679962 
	C266.609406,473.843506 269.053192,471.012909 267.544830,466.625397 
	C263.775269,455.660431 267.303101,445.245056 269.177155,434.700958 
	C270.519531,427.148346 269.422607,425.270355 261.577972,425.266022 
	C251.765167,425.260620 241.947968,425.722198 232.140182,426.153015 
	C220.852921,426.648773 209.750641,426.597321 200.336868,418.899536 
	C199.610123,418.305267 198.530380,418.142700 197.603394,417.774963 
	C194.916153,419.471436 194.876587,422.419678 194.148911,424.825043 
	C191.649658,433.086243 184.522232,435.033783 176.442322,433.874573 
	C168.073578,432.673981 162.385132,426.244476 162.427902,418.756042 
	C162.438232,416.947449 162.748077,415.095520 163.215240,413.342163 
	C165.596878,404.403351 165.671463,404.357452 158.480347,399.026794 
	C152.410690,394.527466 149.318130,388.982971 151.763184,381.321777 
	C154.313232,373.331604 157.174744,365.564178 167.460861,365.105896 
	C170.252609,364.981506 171.928757,363.191742 173.864548,361.618683 
	C180.681244,356.079193 196.519073,358.029449 201.172928,364.767303 
	C204.199097,369.148651 203.729767,373.511078 201.560394,378.189819 
	C205.079041,380.528137 207.756348,379.057587 209.698761,376.407440 
	C212.773834,372.211975 216.812454,370.994659 221.569580,371.980896 
	C237.884613,375.363281 254.200882,376.034454 270.676666,373.048187 
	C274.553009,372.345581 278.656891,372.823547 282.653961,372.888672 
	C285.232269,372.930664 286.752411,372.154144 286.816101,369.260315 
	C286.897308,365.570007 289.552002,362.970154 291.391876,359.979797 
	C288.556915,355.712860 284.670197,353.259338 279.988892,352.270081 
	C270.232758,350.208435 260.424103,348.395874 250.641769,346.457001 
	C248.398026,346.012268 246.800659,346.824402 245.509979,348.651642 
	C243.782974,351.096588 241.932190,353.453735 240.153442,355.862488 
	C234.575851,363.415680 226.632416,366.063965 218.041290,364.163727 
	C206.886871,361.696472 196.706268,356.686157 189.364899,347.301086 
	C187.722992,345.202087 186.027176,343.143860 184.429596,341.011871 
	C179.593506,334.558014 175.362991,327.979156 175.428116,319.326080 
	C175.462814,314.714203 173.780289,310.199280 171.514618,305.351837 
	C170.554077,307.622192 169.925674,309.547913 168.961594,311.287598 
	C167.336731,314.219696 164.829742,316.332306 161.389496,316.190338 
	C158.114868,316.055176 155.950302,313.792480 154.767609,310.823486 
	C152.937943,306.230377 152.918243,301.952728 156.317734,297.758148 
	C167.847839,283.531403 178.110870,268.764862 185.201645,251.444168 
	C190.664749,238.099365 194.545776,224.053894 201.586731,211.325928 
	C214.775497,187.484451 234.379822,171.890640 260.697601,164.813705 
	C264.482422,163.795975 267.749390,162.237778 270.539520,159.319260 
	C274.020264,155.678360 278.461609,155.650223 282.434784,158.722595 
	C281.744873,160.949707 279.249084,160.131760 277.396820,161.933289 
	C288.829437,164.803391 299.964081,167.451828 310.981903,173.605377 
	C309.322662,168.424667 305.120087,167.825104 302.561646,165.185562 
	C303.944855,162.951569 305.830963,163.081314 307.794525,163.579086 
	C312.771149,164.840698 315.779236,168.096359 317.244293,172.934189 
	C319.358734,179.916412 324.171021,182.346191 330.988678,179.477295 
	C340.715302,175.384262 350.047607,175.331604 359.060699,181.286728 
	C359.338654,181.470367 359.687317,181.611084 359.869019,181.866974 
	C365.239075,189.429840 373.600983,190.942688 381.803619,193.190735 
	C398.522217,197.772720 411.768982,207.783768 421.429352,221.900955 
	C437.826965,245.863480 441.473419,271.554047 428.555084,298.260559 
	C421.033844,313.809387 408.815979,324.386475 391.814117,329.023346 
	C378.483795,332.658844 365.299713,336.784485 352.480164,341.983398 
	C347.012299,344.200867 342.182739,347.434784 338.034485,351.634491 
	C336.543396,353.144043 334.796906,354.557709 334.671997,357.274414 
	C337.583984,359.531952 342.053711,360.618866 342.430969,365.840790 
M418.464844,229.032349 
	C407.377625,213.344681 394.215515,200.634521 372.932404,197.079453 
	C377.535370,210.986328 373.791199,222.232147 366.229309,232.744492 
	C362.202026,238.343048 356.714722,241.732147 350.303772,243.139603 
	C336.337708,246.205704 322.862488,239.582474 315.726318,226.969727 
	C313.993774,223.907486 313.290649,220.153244 310.290436,217.795609 
	C309.621887,218.196686 308.948639,218.359344 308.826538,218.712540 
	C307.961548,221.214325 307.193512,223.750336 306.424194,226.284409 
	C302.410614,239.504013 289.517365,249.103409 275.803040,249.388626 
	C266.417480,249.583817 258.331940,247.145462 252.673050,239.168152 
	C250.007660,235.410767 247.296722,234.922272 243.648422,238.017563 
	C238.829773,242.105804 233.756790,245.897369 228.741287,249.748947 
	C226.588348,251.402298 226.199219,253.125595 227.116104,255.800232 
	C230.196655,264.786285 233.681717,273.570496 237.654312,282.216003 
	C245.495209,299.280151 250.575287,317.103607 250.303192,336.101532 
	C250.261368,339.021698 251.321960,340.308868 254.143723,340.794525 
	C260.855927,341.949738 267.502136,343.510315 274.231049,344.541260 
	C283.408722,345.947357 291.439606,349.951996 296.652313,357.334412 
	C302.856720,366.121307 311.355621,365.822083 320.160797,365.593506 
	C324.150116,365.489929 326.787384,363.574615 327.891663,359.237122 
	C329.925751,351.247284 333.941589,344.246002 341.546234,340.378479 
	C350.280090,335.936707 359.013214,331.447388 368.453156,328.501862 
	C378.909790,325.239075 389.935822,323.412720 399.480499,317.710144 
	C409.470245,311.741730 419.552277,305.794189 423.926300,293.850891 
	C432.067657,271.621002 431.267792,250.202316 418.464844,229.032349 
M267.520233,179.738617 
	C279.515106,175.077209 290.003143,177.480194 297.546997,186.970078 
	C300.540588,190.735916 303.029663,194.911377 305.637848,198.971405 
	C306.953644,201.019592 308.371277,202.333572 310.936279,201.100266 
	C313.366821,199.931610 318.899658,189.703430 318.729828,186.627625 
	C316.581543,185.924469 316.199310,189.171310 314.010193,188.702698 
	C313.551453,186.087021 314.521088,183.171005 311.456299,181.172363 
	C303.304749,175.856552 294.892181,171.258911 285.236969,169.323227 
	C276.386688,167.548920 267.977783,167.493927 261.466309,175.200577 
	C261.333282,175.358017 260.851013,175.220337 260.610443,175.220337 
	C259.307343,174.383118 260.267303,172.451233 258.487213,171.688248 
	C258.099945,171.757217 257.423218,171.772400 256.826904,171.999069 
	C228.406876,182.802292 208.341537,201.653183 199.560165,231.407501 
	C198.763687,234.106277 197.775604,236.777222 196.589447,239.327606 
	C189.378937,254.830963 181.206894,270.062469 180.720337,287.703613 
	C180.218277,305.906586 179.921997,323.764984 193.079117,339.222076 
	C200.745117,348.228149 209.453430,353.855957 220.475601,356.895996 
	C223.088699,357.616730 225.466095,357.590942 227.724716,356.461365 
	C235.279602,352.682953 240.859634,347.110138 241.569397,338.281372 
	C242.669189,324.601349 242.582443,310.948517 237.420792,297.897827 
	C230.997894,281.658173 224.455292,265.465851 217.964874,249.252884 
	C217.126633,247.158966 215.620163,245.227112 216.304153,242.575836 
	C222.210312,241.204330 226.523361,237.186096 231.115845,233.655960 
	C238.298370,228.134842 244.856369,223.387589 244.553436,211.891388 
	C244.162079,197.039032 253.924545,186.867340 267.520233,179.738617 
M362.898499,473.442871 
	C355.735626,472.272888 349.156921,475.328552 342.291992,476.309265 
	C325.112976,478.763336 307.853760,479.657532 290.511597,479.318146 
	C285.377045,479.217651 284.476044,480.635559 286.568604,485.268433 
	C293.460938,500.527832 306.034698,508.848480 321.523499,513.366333 
	C324.519165,514.240112 327.791748,513.997375 330.870941,512.850159 
	C339.766571,509.535950 348.717407,506.358978 356.508636,500.701202 
	C358.185486,499.483490 359.942078,497.987244 362.266296,499.579285 
	C362.328339,502.601776 359.795319,503.958008 358.596222,506.050964 
	C357.528992,507.913727 356.929840,509.632477 357.836914,511.690643 
	C358.908020,514.121094 361.101044,513.814880 363.006836,513.614136 
	C367.958954,513.092407 372.868835,512.057373 377.827972,511.750885 
	C381.762817,511.507721 384.023987,509.899933 384.913635,506.108978 
	C387.697937,494.244690 389.827454,482.337646 387.455475,470.116241 
	C386.723145,466.342896 386.256470,461.894745 381.898407,460.856476 
	C377.917938,459.908112 374.730194,462.850128 371.856659,465.397003 
	C370.494537,466.604309 369.425751,468.136383 368.158081,469.458038 
	C366.785309,470.889252 365.584991,472.542206 362.898499,473.442871 
M392.741791,518.720032 
	C388.898041,517.442322 384.924316,517.220642 380.910858,517.136047 
	C373.221832,516.974060 365.618652,517.695190 358.049530,518.988953 
	C354.736450,519.555237 351.621674,519.870911 351.527649,514.886169 
	C351.477692,512.238892 349.498627,512.168335 347.539185,513.120605 
	C342.421936,515.607422 337.104706,517.458191 331.524597,518.611816 
	C329.817993,518.964722 328.305664,520.039246 328.414825,522.013306 
	C328.697571,527.126587 326.236572,527.244507 321.871094,526.892578 
	C314.612091,526.307434 307.168823,526.550293 300.922058,531.385681 
	C298.632599,533.157898 296.260651,535.386047 296.807190,538.331909 
	C297.346100,541.236694 300.611694,541.952332 303.160126,542.457764 
	C307.722595,543.362610 312.422852,543.574646 316.983582,544.486267 
	C331.647644,547.417542 346.457397,546.947693 361.255737,546.564453 
	C366.938843,546.417358 367.658325,544.621582 364.636200,539.776978 
	C363.374237,537.753967 360.896576,536.322449 361.295410,533.234863 
	C363.698639,532.217285 365.507416,533.429138 367.132233,534.866577 
	C369.597595,537.047729 370.612122,540.016541 371.521973,543.109009 
	C372.620728,546.843628 376.746582,547.836792 382.049957,546.318420 
	C386.480225,545.049988 384.752869,542.253479 384.098663,539.616089 
	C383.118286,535.663696 380.655762,532.162537 380.164368,527.457458 
	C386.905731,528.646484 389.015594,533.312317 390.454132,538.585022 
	C392.504669,546.101074 392.496521,546.106995 400.266968,544.904114 
	C401.745087,544.675293 403.249786,544.526306 404.685944,544.134216 
	C411.588318,542.250122 413.640350,536.117615 409.563019,530.184509 
	C405.588409,524.400940 400.065277,520.982056 392.741791,518.720032 
M168.759369,373.509644 
	C163.480209,373.124939 160.401855,375.299347 158.047821,381.075836 
	C155.850342,386.468140 156.877396,390.743073 161.352905,394.446503 
	C162.760132,395.610992 164.314774,396.595612 165.778580,397.693665 
	C172.414627,402.671539 173.930710,406.937256 172.021103,414.873840 
	C171.635818,416.475098 171.455765,418.136841 171.309387,419.782135 
	C171.008194,423.167603 171.829010,426.247742 175.025192,427.870361 
	C178.352081,429.559296 181.708542,429.213135 184.931183,427.091461 
	C187.630676,425.314148 188.890793,422.833252 189.708984,419.816559 
	C191.769745,412.218475 191.357391,404.308960 192.832642,396.653687 
	C193.716965,392.064758 196.150146,387.422211 191.272980,383.472351 
	C190.367050,382.738678 190.664581,381.283905 190.968323,380.133087 
	C191.392639,378.525513 192.013565,376.954407 192.279785,375.323517 
	C192.999374,370.915100 191.254974,367.439636 187.550751,365.185425 
	C183.981903,363.013641 180.801224,364.765594 177.939850,366.988953 
	C174.016953,370.037170 177.012695,372.785706 178.343964,375.701569 
	C179.681183,378.630463 181.481079,381.733032 178.272522,384.659882 
	C175.561829,384.527252 175.050583,382.404114 174.166046,380.681030 
	C172.886520,378.188507 172.090332,375.369720 168.759369,373.509644 
M249.580887,486.756134 
	C253.398666,486.739655 257.222687,486.856567 261.032837,486.677643 
	C268.024719,486.349274 268.915771,485.318695 269.118530,477.244019 
	C260.509247,479.433685 251.839325,480.084503 243.205887,481.054413 
	C242.728851,481.107971 242.239288,481.339050 241.823700,481.597198 
	C240.484863,482.428955 239.376953,483.565308 239.803986,485.231537 
	C240.230438,486.895569 241.863083,486.621765 243.142700,486.679199 
	C244.965775,486.761017 246.793777,486.732635 249.580887,486.756134 
z"/>
<path fill="#000000" opacity="1.000000" stroke="none" 
	d="
M378.514526,255.377289 
	C385.751160,263.820190 383.975006,270.471710 373.756134,273.530304 
	C366.162781,275.803131 358.452209,276.809113 351.094666,272.513367 
	C344.186066,268.479736 343.677673,261.434418 350.354431,256.943481 
	C359.153992,251.024719 368.602234,250.703506 378.514526,255.377289 
z"/>
<path fill="#000000" opacity="1.000000" stroke="none" 
	d="
M195.540436,338.390381 
	C187.907944,329.543182 186.700485,318.638489 185.275345,308.248047 
	C183.885864,298.117523 183.169601,287.497131 185.856995,277.473572 
	C188.071838,269.212585 192.033325,261.411224 195.366837,253.467484 
	C195.902603,252.190720 197.202545,251.234650 198.168411,250.107941 
	C201.381729,252.171829 199.421326,254.784561 199.580322,257.932953 
	C200.692322,255.521942 201.427383,253.811661 202.261688,252.151230 
	C203.141434,250.400360 203.828003,248.264694 206.568161,249.230652 
	C208.063477,251.144226 206.651917,253.537994 207.806732,255.798355 
	C212.469330,254.423615 214.116287,257.380554 216.216766,261.061615 
	C219.927963,267.565460 223.456009,274.141479 226.667755,280.891296 
	C234.557358,297.472015 239.507004,314.615723 238.465591,333.334686 
	C237.618210,348.566162 223.803589,357.256165 210.037186,350.838837 
	C204.023514,348.035461 199.826370,343.537323 195.540436,338.390381 
z"/>
</svg>